<mxfile modified="2020-08-03T20:26:44.300Z" host="app.diagrams.net" agent="5.0 (Windows NT 10.0; Win64; x64) AppleWebKit/537.36 (KHTML, like Gecko) Chrome/84.0.4147.105 Safari/537.36" etag="otZT1HQYqcjW2LxZRva9" version="13.5.9" type="github">
  <diagram id="Ht1M8jgEwFfnCIfOTk4-" name="Page-1">
    <mxGraphModel dx="1358" dy="905" grid="1" gridSize="10" guides="1" tooltips="1" connect="1" arrows="1" fold="1" page="1" pageScale="1" pageWidth="1169" pageHeight="827" math="0" shadow="0">
      <root>
        <mxCell id="0" />
        <mxCell id="1" parent="0" />
        <mxCell id="UEzPUAAOIrF-is8g5C7q-75" value="AWS Cloud" style="points=[[0,0],[0.25,0],[0.5,0],[0.75,0],[1,0],[1,0.25],[1,0.5],[1,0.75],[1,1],[0.75,1],[0.5,1],[0.25,1],[0,1],[0,0.75],[0,0.5],[0,0.25]];outlineConnect=0;gradientColor=none;html=1;whiteSpace=wrap;fontSize=12;fontStyle=0;shape=mxgraph.aws4.group;grIcon=mxgraph.aws4.group_aws_cloud_alt;strokeColor=#232F3E;fillColor=none;verticalAlign=top;align=left;spacingLeft=30;fontColor=#232F3E;dashed=0;labelBackgroundColor=#ffffff;" parent="1" vertex="1">
          <mxGeometry x="560" y="80" width="400" height="680" as="geometry" />
        </mxCell>
        <mxCell id="UEzPUAAOIrF-is8g5C7q-78" value="Form Data/Organized" style="outlineConnect=0;fontColor=#232F3E;gradientColor=none;fillColor=#277116;strokeColor=none;dashed=0;verticalLabelPosition=bottom;verticalAlign=top;align=center;html=1;fontSize=12;fontStyle=0;aspect=fixed;pointerEvents=1;shape=mxgraph.aws4.bucket_with_objects;labelBackgroundColor=#ffffff;" parent="1" vertex="1">
          <mxGeometry x="802.5" y="162" width="75" height="78" as="geometry" />
        </mxCell>
        <mxCell id="hs5ez1rP9gIjdYSZ9DTE-6" style="edgeStyle=orthogonalEdgeStyle;rounded=0;orthogonalLoop=1;jettySize=auto;html=1;" edge="1" parent="1" source="hs5ez1rP9gIjdYSZ9DTE-4" target="hs5ez1rP9gIjdYSZ9DTE-5">
          <mxGeometry relative="1" as="geometry" />
        </mxCell>
        <mxCell id="hs5ez1rP9gIjdYSZ9DTE-4" value="Client PC" style="outlineConnect=0;fontColor=#232F3E;gradientColor=none;fillColor=#232F3E;strokeColor=none;dashed=0;verticalLabelPosition=bottom;verticalAlign=top;align=center;html=1;fontSize=12;fontStyle=0;aspect=fixed;pointerEvents=1;shape=mxgraph.aws4.client;" vertex="1" parent="1">
          <mxGeometry x="240" y="322" width="78" height="76" as="geometry" />
        </mxCell>
        <mxCell id="hs5ez1rP9gIjdYSZ9DTE-9" value="Access Token" style="edgeStyle=orthogonalEdgeStyle;rounded=0;orthogonalLoop=1;jettySize=auto;html=1;" edge="1" parent="1" source="hs5ez1rP9gIjdYSZ9DTE-5" target="hs5ez1rP9gIjdYSZ9DTE-7">
          <mxGeometry relative="1" as="geometry">
            <Array as="points">
              <mxPoint x="440" y="199" />
            </Array>
          </mxGeometry>
        </mxCell>
        <mxCell id="hs5ez1rP9gIjdYSZ9DTE-11" value="User Credentials" style="edgeStyle=orthogonalEdgeStyle;rounded=0;orthogonalLoop=1;jettySize=auto;html=1;" edge="1" parent="1" source="hs5ez1rP9gIjdYSZ9DTE-5" target="hs5ez1rP9gIjdYSZ9DTE-8">
          <mxGeometry relative="1" as="geometry">
            <Array as="points">
              <mxPoint x="679" y="360" />
            </Array>
          </mxGeometry>
        </mxCell>
        <mxCell id="hs5ez1rP9gIjdYSZ9DTE-5" value="&lt;span style=&quot;font-weight: normal&quot;&gt;Form Data Site&lt;/span&gt;" style="outlineConnect=0;fontColor=#232F3E;gradientColor=none;fillColor=#D86613;strokeColor=none;dashed=0;verticalLabelPosition=bottom;verticalAlign=top;align=center;html=1;fontSize=12;fontStyle=1;aspect=fixed;pointerEvents=1;shape=mxgraph.aws4.instance2;" vertex="1" parent="1">
          <mxGeometry x="390" y="310" width="100" height="100" as="geometry" />
        </mxCell>
        <mxCell id="hs5ez1rP9gIjdYSZ9DTE-10" style="edgeStyle=orthogonalEdgeStyle;rounded=0;orthogonalLoop=1;jettySize=auto;html=1;" edge="1" parent="1" source="hs5ez1rP9gIjdYSZ9DTE-7" target="UEzPUAAOIrF-is8g5C7q-78">
          <mxGeometry relative="1" as="geometry" />
        </mxCell>
        <mxCell id="hs5ez1rP9gIjdYSZ9DTE-7" value="Serverless Form&lt;br&gt;Data Processor" style="outlineConnect=0;fontColor=#232F3E;gradientColor=none;fillColor=#D05C17;strokeColor=none;dashed=0;verticalLabelPosition=bottom;verticalAlign=top;align=center;html=1;fontSize=12;fontStyle=0;aspect=fixed;pointerEvents=1;shape=mxgraph.aws4.lambda_function;" vertex="1" parent="1">
          <mxGeometry x="640" y="162" width="78" height="78" as="geometry" />
        </mxCell>
        <mxCell id="hs5ez1rP9gIjdYSZ9DTE-12" value="Acccess Token" style="edgeStyle=orthogonalEdgeStyle;rounded=0;orthogonalLoop=1;jettySize=auto;html=1;" edge="1" parent="1" source="hs5ez1rP9gIjdYSZ9DTE-8" target="hs5ez1rP9gIjdYSZ9DTE-5">
          <mxGeometry relative="1" as="geometry" />
        </mxCell>
        <mxCell id="hs5ez1rP9gIjdYSZ9DTE-8" value="Serverless Token&amp;nbsp;&lt;br&gt;Issuer" style="outlineConnect=0;fontColor=#232F3E;gradientColor=none;fillColor=#D05C17;strokeColor=none;dashed=0;verticalLabelPosition=bottom;verticalAlign=top;align=center;html=1;fontSize=12;fontStyle=0;aspect=fixed;pointerEvents=1;shape=mxgraph.aws4.lambda_function;" vertex="1" parent="1">
          <mxGeometry x="640" y="520" width="78" height="78" as="geometry" />
        </mxCell>
      </root>
    </mxGraphModel>
  </diagram>
</mxfile>
